<svg xmlns="http://www.w3.org/2000/svg" width="180" height="169" viewBox="0 0 180 169">
  <title>Wallangues</title>
  <g id="Layer_2" data-name="Layer 2">
    <g id="Layer_1-2" data-name="Layer 1">
      <path d="M91.47,24.48S15.94,22.74,11.83,83.21C10.55,102,25.7,119.51,25.7,119.51L12.08,156.12l59-14.05s95.95,17.72,98-53.46C171.07,20.62,91.47,24.48,91.47,24.48Z" style="fill: none;stroke: #000000;stroke-miterlimit: 10;stroke-width: 13px"/>
      <g>
        <g>
          <path d="M154.12,30.32a6.15,6.15,0,0,0-7.56-3.59h0a.31.31,0,0,1-.39-.21h0a.31.31,0,0,1,.21-.38h0a6.79,6.79,0,0,1,8.34,4h0a.32.32,0,0,1-.19.4h0a.33.33,0,0,1-.39-.19Z" style="fill: #1d1d1b"/>
          <path d="M153.77,30.45l.35-.13.24-.09h0l-.24.09-.35.13A5.77,5.77,0,0,0,147.11,27h0a3.17,3.17,0,0,0-.44.12h0a.68.68,0,0,1-.81-.45h0a.39.39,0,0,0,0-.06h0a.69.69,0,0,1,.48-.79h0l.55-.14h0A7.15,7.15,0,0,1,155.07,30h0l0,.09h0a.69.69,0,0,1-.44.78h-.1a.67.67,0,0,1-.79-.41Zm.6-.22,0,0h0Zm.06,0,0,0,0,0Z" style="fill: #1d1d1b"/>
        </g>
        <g>
          <path d="M159.85,27.91a12.67,12.67,0,0,0-15.57-7.39h0a.39.39,0,0,1-.49-.26h0a.39.39,0,0,1,.27-.48h0a13.47,13.47,0,0,1,16.54,7.86h0a.39.39,0,0,1-.24.5h0a.41.41,0,0,1-.49-.24Z" style="fill: #1d1d1b"/>
          <path d="M159.41,28.08h0a12.18,12.18,0,0,0-14.06-7.37h0c-.31.07-.62.15-.93.25h-.07a.85.85,0,0,1-1-.57h0l0-.07h0a.86.86,0,0,1,.6-1h0c.36-.11.71-.2,1.07-.28h0a13.92,13.92,0,0,1,16,8.41h0l0,.12h0a.85.85,0,0,1-.53,1h0l-.07,0h-.07a.86.86,0,0,1-1-.52Zm.44-.17.36-.13h0l-.05,0h0l-.3.11Zm.38-.13.06,0-.06,0Z" style="fill: #1d1d1b"/>
        </g>
        <g>
          <path d="M165.57,25.28A19.31,19.31,0,0,0,141.85,14h0a.45.45,0,0,1-.55-.28h0a.44.44,0,0,1,.3-.54h0A20.2,20.2,0,0,1,166.4,25h0a.44.44,0,0,1-.26.56h0a.45.45,0,0,1-.54-.26Z" style="fill: #1d1d1b"/>
          <path d="M165.08,25.46h0a18.75,18.75,0,0,0-21.64-11.34h0c-.48.1-1,.23-1.45.37h0l-.06,0h0a.94.94,0,0,1-1.12-.63h0a.22.22,0,0,1,0-.08h0a1,1,0,0,1,.67-1.1h0c.53-.15,1.06-.29,1.58-.41h0A20.67,20.67,0,0,1,166.89,24.8h0l0,.12h0a1,1,0,0,1-.61,1.08h0a.1.1,0,0,1-.06,0h0l-.07,0h0a1,1,0,0,1-1.11-.58Zm.49-.18.49-.18-.07,0h0l-.07,0h0l-.34.12Z" style="fill: #1d1d1b"/>
        </g>
        <g>
          <path d="M171.43,23.46C166.76,11.19,153,4.52,139.9,8.47h0a.46.46,0,0,1-.57-.29h0a.46.46,0,0,1,.31-.56h0c13.57-4.08,27.8,2.82,32.65,15.52h0a.45.45,0,0,1-.27.57h0a.45.45,0,0,1-.56-.26Z" style="fill: #1d1d1b"/>
          <path d="M170.93,23.64h0c-4.35-11.4-16.73-17.87-29-15.17h0c-.65.14-1.29.31-1.93.5h0L140,9h0a1,1,0,0,1-1.17-.65h0l0-.08h0a1,1,0,0,1,.69-1.14h0c.7-.21,1.39-.39,2.08-.54h0c13-2.87,26.22,3.9,31.07,16h0l.15.44a.56.56,0,0,1,0,.12h0a1,1,0,0,1-.63,1.12h0l-.06,0h0l-.07,0h0a1,1,0,0,1-1.14-.6Zm.5-.18.35-.13h0l-.35.13ZM139.75,8h0Z" style="fill: #1d1d1b"/>
        </g>
      </g>
      <path d="M145.88,31.46c-9.44-1-8.51,10.76-8.51,10.76-6.28,58.22-22.67,71.86-22.67,71.86-11.9,1.16,0-44.81,0-44.81H99c-3.52,39.8-17.69,43.41-17.69,43.41-11-13.53,1.16-43.41,1.16-43.41H65.4c-13.91,51.58,10.73,60.88,10.73,60.88,9.9-9.9,20.3-19,20.3-19,9.13,12.21,14.66,19.1,14.66,19.1,29.32-15.29,40.53-87.24,40.53-87.24S155.65,32.51,145.88,31.46Z" style="fill: #000000"/>
      <rect width="180" height="169" style="fill: none"/>
    </g>
  </g>
</svg>
